<?xml version="1.0" encoding="utf-8"?>
<!-- Generator: Adobe Illustrator 16.0.3, SVG Export Plug-In . SVG Version: 6.00 Build 0)  -->
<!DOCTYPE svg PUBLIC "-//W3C//DTD SVG 1.1//EN" "http://www.w3.org/Graphics/SVG/1.1/DTD/svg11.dtd">
<svg version="1.1" id="圖層_1" xmlns="http://www.w3.org/2000/svg" xmlns:xlink="http://www.w3.org/1999/xlink" x="0px" y="0px"
	 width="273.297px" height="288.24px" viewBox="0 0 273.297 288.24" enable-background="new 0 0 273.297 288.24"
	 xml:space="preserve">
<g>
	<g>
		<rect fill="#F7B52C" width="273.297" height="288.24"/>
	</g>
	<g>
		<g>
			<g>
				<path fill="#F7F7F7" d="M98.419,108.702c0.772,0,1.159,0.387,1.159,1.158v24.825c0,0.745-0.387,1.117-1.159,1.117
					c-0.744,0-1.117-0.372-1.117-1.117V109.86C97.302,109.089,97.675,108.702,98.419,108.702z"/>
				<path fill="#F7F7F7" d="M138.263,109.86v27.101l-33.101-24.824v22.549c0,0.745-0.387,1.117-1.158,1.117
					c-0.772,0-1.158-0.372-1.158-1.117v-27.142l33.1,24.825V109.86c0-0.771,0.386-1.158,1.158-1.158S138.263,109.089,138.263,109.86
					z"/>
				<path fill="#F7F7F7" d="M176.575,134.645c0,0.772-0.387,1.158-1.158,1.158c-0.331,0-0.607-0.109-0.828-0.331l-15.929-15.971
					l-15.185,7.613v7.571c0,0.745-0.387,1.117-1.158,1.117c-0.773,0-1.159-0.372-1.159-1.117V109.86
					c0-0.771,0.386-1.158,1.159-1.158c0.771,0,1.158,0.387,1.158,1.158v14.688l31.444-15.723c0.387-0.192,0.759-0.179,1.117,0.042
					s0.538,0.552,0.538,0.992c0,0.47-0.207,0.801-0.62,0.993l-15.144,7.572l15.433,15.433
					C176.465,134.079,176.575,134.341,176.575,134.645z"/>
				<path fill="#F7F7F7" d="M41.468,179.951v-28.967h5.421v28.967H41.468z"/>
				<path fill="#F7F7F7" d="M78.996,157.977c-0.993-1.654-3.724-3.227-6.869-3.227c-4.056,0-6,1.695-6,3.848
					c0,2.523,2.979,3.229,6.455,3.643c6.042,0.744,11.67,2.316,11.67,9.227c0,6.457-5.711,9.229-12.166,9.229
					c-5.918,0-10.47-1.82-12.622-7.117l4.553-2.359c1.282,3.188,4.635,4.594,8.152,4.594c3.435,0,6.662-1.199,6.662-4.346
					c0-2.73-2.855-3.848-6.704-4.262c-5.917-0.703-11.38-2.275-11.38-8.773c0-5.959,5.876-8.4,11.215-8.441
					c4.51,0,9.187,1.283,11.38,5.752L78.996,157.977z"/>
				<path fill="#F7F7F7" d="M102.206,150.984v23.918h14.897v5.049h-20.36v-28.967H102.206z"/>
				<path fill="#F7F7F7" d="M149.789,174.488h-15.146l-2.483,5.463h-5.918l12.994-28.967h5.959l12.994,28.967h-5.959
					L149.789,174.488z"/>
				<path fill="#F7F7F7" d="M187.978,150.941h5.462v29.01h-3.393v0.041l-15.229-19.574v19.533h-5.463v-28.967h4.428l14.194,17.959
					V150.941z"/>
				<path fill="#F7F7F7" d="M232.207,165.219c0.124,7.324-4.345,14.732-14.483,14.732c-3.559,0-7.821,0-11.38,0v-28.967
					c3.559,0,7.821,0,11.38,0C227.655,150.984,232.083,158.061,232.207,165.219z"/>
			</g>
			<line fill="none" stroke="#FFFFFF" stroke-miterlimit="10" x1="41.087" y1="143.637" x2="232.087" y2="143.637"/>
		</g>
		<g>
			<path fill="#FFFFFF" d="M198.483,191.955c0.136,0.172,0.285,0.307,0.447,0.407s0.367,0.15,0.615,0.15
				c0.106,0,0.214-0.012,0.323-0.035c0.108-0.023,0.208-0.062,0.296-0.115c0.089-0.053,0.159-0.119,0.213-0.199
				c0.053-0.079,0.079-0.175,0.079-0.287s-0.024-0.204-0.075-0.274c-0.05-0.071-0.116-0.132-0.199-0.182
				c-0.082-0.05-0.177-0.09-0.283-0.119c-0.105-0.03-0.215-0.057-0.327-0.08c-0.194-0.041-0.381-0.089-0.558-0.142
				s-0.332-0.122-0.465-0.208c-0.133-0.085-0.238-0.196-0.318-0.332s-0.119-0.31-0.119-0.522c0-0.2,0.044-0.377,0.133-0.53
				c0.088-0.153,0.206-0.28,0.354-0.381s0.313-0.177,0.496-0.23c0.183-0.053,0.371-0.079,0.566-0.079
				c0.295,0,0.567,0.059,0.818,0.177s0.447,0.31,0.589,0.575l-0.575,0.381c-0.089-0.147-0.205-0.267-0.35-0.358
				c-0.146-0.092-0.32-0.138-0.527-0.138c-0.094,0-0.189,0.012-0.287,0.036c-0.098,0.023-0.185,0.059-0.262,0.105
				c-0.076,0.048-0.14,0.108-0.189,0.182c-0.051,0.074-0.075,0.158-0.075,0.252c0,0.089,0.027,0.164,0.084,0.226
				c0.056,0.063,0.133,0.117,0.229,0.164c0.098,0.048,0.21,0.089,0.337,0.124s0.258,0.065,0.394,0.089
				c0.183,0.035,0.356,0.081,0.522,0.137c0.165,0.057,0.31,0.132,0.434,0.226c0.124,0.095,0.221,0.213,0.292,0.354
				c0.07,0.142,0.106,0.315,0.106,0.521c0,0.236-0.048,0.438-0.142,0.603c-0.095,0.165-0.221,0.3-0.377,0.402
				c-0.156,0.104-0.333,0.179-0.53,0.226c-0.198,0.048-0.4,0.071-0.606,0.071c-0.354,0-0.659-0.055-0.916-0.164
				s-0.488-0.312-0.695-0.606L198.483,191.955z"/>
			<path fill="#FFFFFF" d="M206.202,189.486h-1.222v2.07c0,0.136,0.003,0.262,0.009,0.377c0.006,0.114,0.029,0.215,0.071,0.301
				c0.041,0.085,0.103,0.153,0.186,0.203c0.083,0.051,0.2,0.075,0.354,0.075c0.1,0,0.203-0.012,0.31-0.035
				c0.105-0.023,0.206-0.059,0.301-0.106l0.026,0.629c-0.118,0.053-0.249,0.091-0.394,0.115c-0.145,0.023-0.282,0.035-0.412,0.035
				c-0.247,0-0.445-0.033-0.593-0.098s-0.263-0.156-0.345-0.274c-0.083-0.118-0.138-0.264-0.164-0.438
				c-0.026-0.174-0.04-0.367-0.04-0.579v-2.274h-0.902v-0.585h0.902v-1.177h0.69v1.177h1.222V189.486z"/>
			<path fill="#FFFFFF" d="M212.432,192.062c0,0.188,0.006,0.366,0.019,0.531c0.012,0.165,0.018,0.315,0.018,0.451h-0.655
				c0-0.112-0.003-0.225-0.009-0.336c-0.006-0.112-0.009-0.228-0.009-0.346h-0.018c-0.048,0.101-0.114,0.198-0.199,0.292
				c-0.086,0.095-0.188,0.179-0.306,0.253c-0.118,0.073-0.251,0.132-0.398,0.177c-0.147,0.044-0.307,0.066-0.478,0.066
				c-0.271,0-0.506-0.042-0.704-0.124c-0.197-0.083-0.361-0.197-0.491-0.346c-0.13-0.147-0.226-0.325-0.287-0.535
				c-0.063-0.209-0.093-0.438-0.093-0.686v-2.559h0.69v2.487c0,0.349,0.076,0.623,0.229,0.823c0.153,0.201,0.393,0.301,0.717,0.301
				c0.225,0,0.418-0.038,0.58-0.115c0.162-0.076,0.295-0.186,0.398-0.327c0.103-0.142,0.18-0.31,0.229-0.505
				c0.051-0.194,0.075-0.409,0.075-0.646v-2.019h0.69V192.062z"/>
			<path fill="#FFFFFF" d="M218.955,192.31h-0.018c-0.13,0.235-0.335,0.435-0.615,0.598c-0.28,0.162-0.606,0.243-0.978,0.243
				c-0.289,0-0.561-0.055-0.814-0.164s-0.474-0.261-0.659-0.456c-0.187-0.194-0.332-0.425-0.438-0.69
				c-0.106-0.265-0.159-0.554-0.159-0.867c0-0.313,0.053-0.602,0.159-0.867s0.254-0.495,0.442-0.69
				c0.189-0.194,0.418-0.347,0.687-0.456c0.268-0.108,0.564-0.163,0.889-0.163c0.302,0,0.577,0.062,0.828,0.186
				s0.471,0.298,0.659,0.522h0.018v-3.151h0.69v6.691h-0.69V192.31z M218.955,190.973c0-0.218-0.034-0.42-0.102-0.606
				c-0.068-0.186-0.167-0.348-0.297-0.486s-0.284-0.248-0.464-0.327c-0.181-0.08-0.383-0.12-0.606-0.12
				c-0.225,0-0.427,0.04-0.606,0.12c-0.18,0.079-0.335,0.188-0.465,0.327s-0.229,0.301-0.297,0.486
				c-0.067,0.187-0.102,0.389-0.102,0.606c0,0.219,0.034,0.421,0.102,0.606c0.068,0.186,0.167,0.349,0.297,0.487
				s0.285,0.247,0.465,0.327c0.18,0.079,0.382,0.119,0.606,0.119c0.224,0,0.426-0.04,0.606-0.119c0.18-0.08,0.334-0.188,0.464-0.327
				s0.229-0.302,0.297-0.487C218.921,191.394,218.955,191.191,218.955,190.973z"/>
			<path fill="#FFFFFF" d="M222.601,187.282c0-0.136,0.049-0.254,0.146-0.354c0.097-0.1,0.217-0.15,0.358-0.15
				s0.261,0.051,0.358,0.15c0.097,0.101,0.146,0.219,0.146,0.354c0,0.147-0.047,0.269-0.142,0.363
				c-0.095,0.094-0.215,0.142-0.362,0.142c-0.148,0-0.269-0.048-0.363-0.142C222.647,187.551,222.601,187.43,222.601,187.282z
				 M222.76,188.901h0.69v4.143h-0.69V188.901z"/>
			<path fill="#FFFFFF" d="M226.354,190.973c0-0.324,0.056-0.619,0.168-0.885s0.266-0.494,0.46-0.686
				c0.195-0.192,0.428-0.341,0.699-0.447s0.566-0.159,0.886-0.159c0.318,0,0.613,0.053,0.885,0.159s0.505,0.255,0.699,0.447
				c0.194,0.191,0.348,0.42,0.46,0.686s0.168,0.561,0.168,0.885c0,0.325-0.056,0.62-0.168,0.886
				c-0.112,0.265-0.266,0.494-0.46,0.686s-0.428,0.341-0.699,0.447c-0.271,0.105-0.566,0.159-0.885,0.159
				c-0.319,0-0.614-0.054-0.886-0.159c-0.271-0.106-0.504-0.256-0.699-0.447c-0.194-0.191-0.348-0.421-0.46-0.686
				C226.409,191.593,226.354,191.298,226.354,190.973z M227.097,190.973c0,0.219,0.034,0.421,0.102,0.606
				c0.068,0.186,0.167,0.349,0.297,0.487s0.285,0.247,0.465,0.327c0.18,0.079,0.382,0.119,0.606,0.119
				c0.224,0,0.426-0.04,0.606-0.119c0.18-0.08,0.334-0.188,0.464-0.327s0.229-0.302,0.297-0.487
				c0.067-0.186,0.102-0.388,0.102-0.606c0-0.218-0.034-0.42-0.102-0.606c-0.068-0.186-0.167-0.348-0.297-0.486
				s-0.284-0.248-0.464-0.327c-0.181-0.08-0.383-0.12-0.606-0.12c-0.225,0-0.427,0.04-0.606,0.12
				c-0.18,0.079-0.335,0.188-0.465,0.327s-0.229,0.301-0.297,0.486C227.131,190.553,227.097,190.755,227.097,190.973z"/>
		</g>
	</g>
</g>
</svg>
