<?xml version="1.0" encoding="utf-8"?>
<!-- Generator: Adobe Illustrator 16.0.3, SVG Export Plug-In . SVG Version: 6.00 Build 0)  -->
<!DOCTYPE svg PUBLIC "-//W3C//DTD SVG 1.1//EN" "http://www.w3.org/Graphics/SVG/1.1/DTD/svg11.dtd">
<svg version="1.1" id="圖層_1" xmlns="http://www.w3.org/2000/svg" xmlns:xlink="http://www.w3.org/1999/xlink" x="0px" y="0px"
	 width="64.504px" height="68.032px" viewBox="0 0 64.504 68.032" enable-background="new 0 0 64.504 68.032" xml:space="preserve">
<rect y="0" fill="#F29600" width="64.504" height="68.031"/>
<path fill="#F7F7F7" d="M22.006,23.218c-0.035,0-0.11,0.004-0.228,0.013c-0.117,0.008-0.335,0.014-0.655,0.014
	s-0.57,0.029-0.751,0.091l-0.26-0.636c0.347,0.086,0.679,0.129,0.998,0.129c0.458,0,0.804,0.005,1.038,0.014
	c0.232,0.008,0.436,0.013,0.607,0.013l2.685,0.013V22.61l-0.026-1.466c0-0.259-0.033-0.506-0.104-0.739l1.089,0.26
	c0.095,0.025,0.144,0.074,0.144,0.143c0,0.069-0.09,0.127-0.267,0.176c-0.177,0.047-0.267,0.113-0.267,0.2v1.685h3.929l0.493-0.635
	c0.033-0.035,0.072-0.052,0.115-0.052c0.096,0,0.274,0.142,0.539,0.421c0.264,0.281,0.396,0.439,0.396,0.473
	c0,0.035-0.031,0.082-0.091,0.144h-4.823c0.39,1.099,0.894,2.026,1.511,2.787c0.617,0.76,1.335,1.396,2.152,1.905
	c0.816,0.511,1.316,0.765,1.497,0.765l-0.039,0.194c-0.354,0-0.581,0.061-0.681,0.182s-0.166,0.182-0.201,0.182
	c-0.139,0-0.525-0.277-1.16-0.83s-1.255-1.248-1.86-2.086c-0.604-0.839-1.106-1.871-1.504-3.099H26.01v5.25h1.439
	c0.277-0.397,0.456-0.597,0.538-0.597s0.242,0.121,0.479,0.363c0.237,0.241,0.356,0.385,0.356,0.428c0,0.086-0.03,0.13-0.09,0.13
	H26.01v0.596l0.053,2.229v0.168c-0.078,0.131-0.26,0.195-0.544,0.195c-0.078,0-0.117-0.087-0.117-0.26l0.039-2.605v-0.323h-0.856
	L23.6,28.805c-0.397,0-0.688,0.035-0.868,0.104l-0.222-0.597c0.043,0.009,0.082,0.019,0.117,0.026
	c0.252,0.061,0.51,0.091,0.778,0.091c0.39,0,0.681,0.004,0.875,0.013c0.194,0.008,0.365,0.014,0.513,0.014l0.647,0.013v-5.211
	c-0.579,1.392-1.169,2.481-1.769,3.272c-0.602,0.791-1.328,1.554-2.179,2.289c-0.852,0.733-1.342,1.102-1.471,1.102l-0.156-0.169
	c0.086,0,0.56-0.412,1.419-1.238c0.86-0.825,1.545-1.625,2.055-2.397c0.511-0.773,0.998-1.739,1.465-2.897H22.006z"/>
<path fill="#F7F7F7" d="M25.519,32.041c-0.117,0-0.177-0.106-0.177-0.319l0.039-2.869h-0.797l-0.983,0.012
	c-0.39,0-0.675,0.035-0.849,0.1l-0.056,0.021l-0.276-0.752l0.103,0.021c0.044,0.009,0.084,0.018,0.119,0.027
	c0.243,0.059,0.502,0.089,0.764,0.089c0.386,0,0.681,0.004,0.877,0.013c0.191,0.008,0.363,0.014,0.511,0.014l0.588,0.01v-4.859
	c-0.543,1.266-1.102,2.279-1.664,3.02c-0.6,0.789-1.336,1.563-2.186,2.295c-1.146,0.99-1.408,1.117-1.509,1.117h-0.026l-0.265-0.287
	h0.135c0.038-0.008,0.259-0.146,1.38-1.222c0.852-0.817,1.539-1.62,2.045-2.387c0.493-0.749,0.974-1.692,1.426-2.806h-2.711
	c-0.035,0-0.108,0.004-0.224,0.013c-0.118,0.008-0.334,0.013-0.659,0.013c-0.311,0-0.558,0.029-0.732,0.088l-0.053,0.018
	l-0.324-0.795l0.113,0.029c0.34,0.084,0.67,0.127,0.983,0.127c0.455,0,0.804,0.004,1.039,0.014c0.233,0.009,0.437,0.013,0.606,0.013
	l2.625,0.013v-0.201l-0.025-1.463c0-0.252-0.034-0.496-0.102-0.724l-0.028-0.097l1.188,0.283c0.154,0.041,0.188,0.131,0.188,0.199
	c0,0.135-0.178,0.196-0.311,0.232c-0.082,0.021-0.222,0.07-0.222,0.145v1.625h3.84l0.476-0.613c0.051-0.051,0.104-0.073,0.162-0.073
	c0.078,0,0.215,0.05,0.582,0.44c0.412,0.438,0.412,0.479,0.412,0.513c0,0.052-0.035,0.11-0.108,0.184l-0.019,0.019h-4.763
	c0.382,1.053,0.877,1.957,1.474,2.689c0.609,0.752,1.328,1.389,2.137,1.893c1,0.625,1.349,0.757,1.466,0.757h0.071l-0.063,0.312
	h-0.048c-0.33,0-0.549,0.057-0.636,0.16c-0.137,0.169-0.197,0.204-0.245,0.204c-0.099,0-0.33-0.088-1.2-0.845
	c-0.635-0.553-1.264-1.26-1.869-2.098c-0.599-0.83-1.104-1.863-1.499-3.072h-0.17v5.132h1.351c0.365-0.524,0.488-0.597,0.567-0.597
	c0.069,0,0.19,0.043,0.522,0.381c0.345,0.351,0.373,0.424,0.373,0.469c0,0.171-0.105,0.189-0.15,0.189h-2.663v0.536l0.052,2.414
	l-0.009,0.015C26.023,31.967,25.828,32.041,25.519,32.041 M25.44,28.733h0.06v0.384l-0.039,2.605c0,0.123,0.021,0.199,0.058,0.199
	c0.251,0,0.414-0.051,0.485-0.151v-0.151l-0.053-2.228v-0.658h2.781c0.012,0,0.032,0,0.032-0.07c-0.003-0.01-0.04-0.082-0.339-0.387
	c-0.316-0.32-0.416-0.346-0.438-0.346c-0.017,0.002-0.116,0.036-0.489,0.572l-0.018,0.023h-1.529V23.16h0.374l0.013,0.04
	c0.395,1.216,0.897,2.253,1.496,3.082c0.6,0.83,1.223,1.529,1.852,2.076c0.814,0.709,1.052,0.815,1.122,0.815
	c-0.002,0,0.036-0.015,0.155-0.159c0.106-0.131,0.328-0.197,0.678-0.203l0.016-0.084c-0.23-0.048-0.71-0.3-1.458-0.766
	c-0.819-0.512-1.547-1.157-2.166-1.919c-0.618-0.763-1.131-1.705-1.521-2.806l-0.027-0.077h4.881
	c0.057-0.06,0.057-0.084,0.057-0.084c-0.004-0.005-0.047-0.079-0.379-0.433c-0.342-0.363-0.461-0.402-0.496-0.402
	c-0.026,0-0.051,0.011-0.074,0.035l-0.506,0.651h-4.016v-1.743c0-0.177,0.233-0.238,0.311-0.259
	c0.216-0.058,0.221-0.112,0.221-0.118c0-0.018,0-0.059-0.1-0.086l-0.988-0.236c0.052,0.211,0.079,0.432,0.079,0.66l0.026,1.782
	l-2.744-0.013c-0.17,0-0.377-0.005-0.61-0.014c-0.233-0.008-0.582-0.013-1.035-0.013c-0.288,0-0.59-0.034-0.899-0.104l0.195,0.479
	c0.182-0.051,0.424-0.076,0.717-0.076c0.317,0,0.536-0.006,0.65-0.014c0.12-0.009,0.195-0.013,0.232-0.013h2.887l-0.033,0.081
	c-0.465,1.156-0.96,2.134-1.47,2.908c-0.511,0.772-1.204,1.584-2.063,2.408c-0.898,0.861-1.226,1.131-1.361,1.215l0.08,0.086
	c0.086-0.027,0.387-0.201,1.41-1.084c0.844-0.729,1.573-1.496,2.17-2.279c0.594-0.783,1.187-1.881,1.76-3.26l0.115-0.272v5.565
	l-0.709-0.014l0,0c-0.147,0-0.32-0.005-0.514-0.013c-0.193-0.009-0.488-0.013-0.872-0.013c-0.272,0-0.538-0.031-0.792-0.092
	c-0.003-0.002-0.006-0.002-0.01-0.004l0.163,0.441c0.19-0.059,0.463-0.088,0.833-0.088l0.984-0.014H25.44z"/>
<path fill="#F7F7F7" d="M38.533,29.648h-1.879l-0.817,0.013c-0.304,0-0.554,0.03-0.752,0.09l-0.234-0.557
	c0.329,0.086,0.649,0.131,0.96,0.131l1.129,0.039h1.594l-0.026-0.74c0-0.293-0.021-0.483-0.063-0.57
	c0.162,0.044,0.293,0.074,0.387,0.091c0.502,0.112,0.753,0.205,0.753,0.279c0,0.073-0.087,0.134-0.261,0.181
	c-0.172,0.048-0.258,0.102-0.258,0.162v0.598h2.178c0.078-0.104,0.139-0.187,0.182-0.248c0.182-0.267,0.283-0.401,0.304-0.401
	c0.022,0,0.052,0.003,0.091,0.007s0.063,0.006,0.071,0.006c0.527,0.398,0.791,0.666,0.791,0.805c0,0.077-0.039,0.116-0.116,0.116
	h-3.5v1.529h3.953c0.303-0.433,0.467-0.647,0.492-0.647c0.027,0,0.059,0.002,0.098,0.006s0.063,0.006,0.071,0.006
	c0.571,0.354,0.856,0.627,0.856,0.817c0,0.077-0.045,0.116-0.131,0.116h-9.722l-0.817,0.014c-0.301,0-0.553,0.029-0.752,0.09
	l-0.232-0.557c0.389,0.078,0.709,0.116,0.96,0.116l1.31,0.039h3.383V29.648z M35.318,24.139v0.116v0.194
	c-0.043,0.104-0.178,0.155-0.402,0.155c-0.096,0-0.143-0.091-0.143-0.272l0.039-1.412v-0.856l-0.025-0.726
	c0-0.285-0.026-0.471-0.078-0.557l0.415,0.207l0.298,0.207h6.585l0.272-0.298c0.043-0.044,0.082-0.065,0.116-0.065
	s0.082,0.021,0.144,0.065c0.103,0.077,0.181,0.134,0.232,0.168c0.198,0.147,0.299,0.261,0.299,0.337
	c0,0.045-0.026,0.078-0.078,0.104c-0.207,0.13-0.312,0.22-0.312,0.272v1.023L42.72,24.1c0,0.232-0.126,0.35-0.376,0.35h-0.064
	c-0.078,0-0.117-0.052-0.117-0.156v-0.154h-3.201v1.141h2.994l0.44-0.57c0.034-0.035,0.065-0.053,0.091-0.053
	c0.069,0,0.231,0.123,0.486,0.369c0.255,0.247,0.383,0.395,0.383,0.441c0,0.048-0.031,0.07-0.092,0.07h-4.303v1.039h4.005
	l0.454-0.623c0.033-0.035,0.064-0.053,0.09-0.053c0.087,0,0.251,0.131,0.493,0.389c0.241,0.261,0.362,0.402,0.362,0.429
	c0,0.095-0.029,0.144-0.09,0.144h-9.359l-0.868,0.012c-0.269,0-0.519,0.035-0.752,0.104l-0.233-0.544
	c0.26,0.086,0.596,0.129,1.012,0.129l0.894,0.015h3.461v-1.039h-2.112c-0.156,0.019-0.445,0.026-0.869,0.026
	c-0.276,0-0.531,0.035-0.765,0.104l-0.22-0.531c0.302,0.077,0.643,0.121,1.023,0.129l0.895,0.014h2.048v-1.141H35.318z
	 M34.916,27.275l0.182,0.026c-0.068,0.596-0.238,1.061-0.506,1.395c-0.268,0.332-0.557,0.498-0.868,0.498
	c-0.208,0-0.312-0.084-0.312-0.253s0.143-0.309,0.429-0.421C34.307,28.331,34.666,27.915,34.916,27.275 M42.279,27.392l0.09-0.129
	c1.133,0.44,1.699,0.907,1.699,1.399c0,0.269-0.091,0.401-0.272,0.401c-0.121,0-0.255-0.138-0.402-0.415
	C43.16,28.217,42.789,27.798,42.279,27.392"/>
<path fill="#F7F7F7" d="M33.08,31.651l-0.297-0.709l0.109,0.021c0.383,0.078,0.703,0.117,0.947,0.117l1.312,0.037h3.322v-1.41h-1.82
	l-0.815,0.012c-0.297,0-0.543,0.031-0.736,0.089l-0.051,0.015l-0.301-0.716l0.116,0.03c0.322,0.085,0.64,0.128,0.944,0.128
	l1.13,0.039h1.531l-0.024-0.679c0-0.354-0.031-0.492-0.058-0.545l-0.058-0.117l0.125,0.033c0.162,0.043,0.291,0.072,0.385,0.09
	c0.738,0.166,0.801,0.256,0.801,0.336c0,0.156-0.229,0.219-0.305,0.238c-0.205,0.057-0.215,0.105-0.215,0.105v0.538h2.09
	c0.068-0.093,0.123-0.166,0.162-0.222c0.289-0.428,0.313-0.428,0.354-0.428c0.021,0,0.055,0.003,0.098,0.008
	c0.034,0.004,0.055,0.006,0.064,0.006h0.02l0.016,0.012c0.722,0.545,0.813,0.74,0.813,0.851s-0.065,0.177-0.176,0.177h-3.44v1.41
	h3.864c0.454-0.648,0.482-0.648,0.523-0.648c0.028,0,0.062,0.003,0.104,0.008c0.034,0.004,0.056,0.006,0.065,0.006h0.016
	l0.014,0.009c0.604,0.374,0.885,0.65,0.885,0.867c0,0.11-0.071,0.175-0.188,0.175h-9.722l-0.816,0.014
	c-0.296,0-0.543,0.029-0.736,0.088L33.08,31.651z M32.979,31.101l0.17,0.407c0.195-0.053,0.436-0.079,0.718-0.079l0.816-0.013h9.723
	c0.065,0,0.07-0.023,0.07-0.058c0-0.114-0.142-0.339-0.815-0.759c-0.014-0.001-0.033-0.003-0.059-0.006
	c-0.028-0.004-0.053-0.006-0.074-0.006c-0.029,0.031-0.131,0.15-0.461,0.623l-0.018,0.024h-4.043v-1.647h3.558
	c0.046,0,0.06-0.013,0.06-0.058c0-0.053-0.074-0.231-0.754-0.746c-0.014-0.001-0.033-0.003-0.057-0.005
	c-0.027-0.004-0.049-0.005-0.066-0.006c-0.023,0.023-0.09,0.104-0.273,0.376c-0.044,0.062-0.105,0.144-0.184,0.248l-0.018,0.022
	h-2.266v-0.654c0-0.121,0.173-0.184,0.302-0.219c0.159-0.043,0.216-0.094,0.216-0.125c-0.006-0.004-0.079-0.08-0.706-0.221
	c-0.073-0.013-0.17-0.035-0.287-0.064c0.024,0.109,0.035,0.271,0.035,0.486l0.028,0.797h-1.655l-1.13-0.037
	c-0.277,0-0.564-0.035-0.857-0.104l0.168,0.4c0.195-0.053,0.437-0.078,0.717-0.078l0.816-0.014h1.939v1.647h-3.442l-1.312-0.039
	C33.61,31.197,33.321,31.165,32.979,31.101 M33.724,29.252c-0.322,0-0.37-0.194-0.37-0.311c0-0.195,0.156-0.355,0.465-0.477
	c0.448-0.183,0.799-0.59,1.043-1.211l0.018-0.043l0.285,0.039l-0.008,0.058c-0.07,0.604-0.244,1.084-0.518,1.424
	C34.359,29.079,34.051,29.252,33.724,29.252 M34.953,27.34c-0.255,0.629-0.621,1.043-1.091,1.234
	c-0.259,0.102-0.391,0.225-0.391,0.367c0,0.089,0.028,0.193,0.252,0.193c0.291,0,0.567-0.16,0.821-0.478
	c0.252-0.312,0.416-0.751,0.487-1.306L34.953,27.34z M43.795,29.124c-0.146,0-0.295-0.146-0.453-0.447
	c-0.229-0.422-0.598-0.838-1.1-1.238l-0.044-0.034l0.15-0.213l0.043,0.017c1.168,0.455,1.735,0.931,1.735,1.455
	C44.127,29.043,43.946,29.124,43.795,29.124 M42.358,27.381c0.493,0.398,0.858,0.815,1.087,1.24c0.178,0.334,0.296,0.383,0.35,0.383
	c0.06,0,0.213,0,0.213-0.342c0-0.457-0.543-0.904-1.616-1.328L42.358,27.381z M33.263,27.049l-0.306-0.713l0.125,0.041
	c0.252,0.084,0.584,0.127,0.991,0.127l0.896,0.013h3.402v-0.919h-2.056c-0.151,0.017-0.437,0.025-0.868,0.025
	c-0.269,0-0.521,0.034-0.748,0.102l-0.051,0.015l-0.286-0.69l0.115,0.031c0.297,0.075,0.637,0.118,1.01,0.127l0.894,0.012h1.99
	v-1.022h-2.994l-0.004,0.275c-0.055,0.13-0.203,0.192-0.457,0.192c-0.092,0-0.201-0.058-0.201-0.332l0.039-1.414v-0.854
	l-0.026-0.725c0-0.342-0.038-0.477-0.069-0.528l-0.104-0.174l0.595,0.298l0.29,0.201h6.541l0.255-0.279
	c0.111-0.109,0.187-0.115,0.337-0.008c0.104,0.076,0.18,0.133,0.232,0.167c0.225,0.167,0.324,0.284,0.324,0.386
	c0,0.046-0.02,0.111-0.11,0.157c-0.256,0.159-0.277,0.216-0.279,0.222v1.021l0.039,1.295c0,0.188-0.075,0.41-0.435,0.41h-0.065
	c-0.052,0-0.175-0.021-0.175-0.215v-0.097H39.02v1.022h2.906l0.424-0.547c0.051-0.051,0.094-0.074,0.137-0.074
	c0.063,0,0.176,0.046,0.527,0.386c0.369,0.356,0.4,0.435,0.4,0.483c0,0.063-0.039,0.131-0.149,0.131H39.02v0.919h3.917l0.437-0.599
	c0.051-0.054,0.094-0.076,0.138-0.076c0.071,0,0.198,0.047,0.536,0.408c0.377,0.405,0.377,0.437,0.377,0.467
	c0,0.183-0.104,0.203-0.148,0.203h-9.359l-0.867,0.013c-0.262,0-0.508,0.034-0.736,0.101L33.263,27.049z M33.166,26.525l0.164,0.381
	c0.224-0.06,0.465-0.091,0.717-0.091l0.869-0.014h9.359c0.007,0,0.03,0,0.032-0.073c-0.015-0.024-0.078-0.108-0.349-0.397
	c-0.319-0.344-0.424-0.369-0.448-0.369c0,0-0.017,0-0.05,0.033l-0.465,0.641h-4.095V25.48h4.363c0.024,0,0.03-0.006,0.03-0.006
	c-0.002-0.017-0.041-0.095-0.363-0.405c-0.348-0.336-0.432-0.354-0.445-0.354c0,0-0.016,0.002-0.049,0.035l-0.454,0.588h-3.082
	v-1.258h3.32v0.213c0,0.098,0.034,0.098,0.057,0.098h0.065c0.219,0,0.316-0.09,0.316-0.291l-0.037-1.295v-1.026
	c0-0.057,0.041-0.136,0.338-0.321c0.05-0.025,0.05-0.045,0.05-0.055c0-0.02-0.02-0.102-0.274-0.289
	c-0.05-0.033-0.129-0.09-0.234-0.169c-0.067-0.049-0.099-0.053-0.106-0.053s-0.032,0.005-0.075,0.048l-0.288,0.314h-6.629
	l-0.313-0.217l-0.278-0.139c0.022,0.105,0.034,0.251,0.034,0.439l0.025,0.725v0.857l-0.039,1.414c0,0.141,0.028,0.211,0.084,0.211
	c0.131,0,0.295-0.019,0.342-0.108v-0.356h3.23v1.258h-2.107l-0.896-0.014c-0.336-0.007-0.647-0.042-0.924-0.104l0.155,0.376
	c0.225-0.062,0.471-0.093,0.73-0.093c0.422,0,0.711-0.008,0.862-0.024h2.179v1.155h-3.52l-0.896-0.014
	C33.715,26.622,33.412,26.588,33.166,26.525"/>
<path fill="#F7F7F7" d="M24.391,43.673v2.295h2.45v-1.31c0-0.319-0.026-0.522-0.078-0.609l0.972,0.246
	c0.096,0.026,0.143,0.069,0.143,0.13c0,0.06-0.084,0.115-0.252,0.162c-0.17,0.048-0.254,0.119-0.254,0.214v0.739l0.026,1.088v0.143
	c0,0.139-0.147,0.208-0.44,0.208c-0.078,0-0.116-0.069-0.116-0.208v-0.518h-5.679v0.479v0.143c0,0.164-0.129,0.246-0.389,0.246
	h-0.052c-0.086,0-0.129-0.078-0.129-0.233l0.051-1.076v-0.414l-0.013-0.636c0-0.259-0.03-0.488-0.092-0.687l1,0.246
	c0.095,0.025,0.143,0.069,0.143,0.13s-0.087,0.117-0.26,0.168c-0.174,0.052-0.26,0.112-0.26,0.182v1.167h2.684v-2.295h-1.244v0.233
	c0,0.268-0.16,0.402-0.48,0.402c-0.104,0-0.154-0.091-0.154-0.272c0-0.89,0.004-1.439,0.012-1.646
	c0.01-0.207,0.014-0.376,0.014-0.505l0.014-4.148c0-0.19-0.027-0.441-0.078-0.752l0.376,0.207l0.337,0.221h1.686
	c0.207-0.527,0.35-0.977,0.428-1.348c0-0.026,0.008-0.065,0.025-0.117l0.985,0.259c0.078,0.026,0.116,0.069,0.116,0.13
	s-0.1,0.108-0.299,0.143c-0.198,0.035-0.307,0.064-0.323,0.091c-0.164,0.251-0.347,0.484-0.544,0.7l-0.143,0.143h3.577
	c0.164-0.294,0.304-0.44,0.415-0.44c0.026,0,0.082,0.03,0.168,0.091c0.086,0.06,0.219,0.146,0.395,0.259
	c0.179,0.112,0.267,0.216,0.267,0.311c0,0.053-0.03,0.096-0.09,0.13c-0.277,0.147-0.415,0.246-0.415,0.299v1.244
	c0.043,0.346,0.064,0.912,0.064,1.698c0,0.231-0.164,0.35-0.492,0.35c-0.104,0-0.155-0.06-0.155-0.182v-0.013l0.012-0.389h-5.716
	v1.167h6.857c0.068-0.096,0.121-0.169,0.156-0.221c0.18-0.268,0.293-0.402,0.336-0.402s0.09,0.018,0.143,0.053
	c0.13,0.104,0.264,0.203,0.402,0.298c0.276,0.207,0.414,0.353,0.414,0.434c0,0.083-0.035,0.123-0.103,0.123h-8.206v1.167h7.557
	c0.045-0.052,0.074-0.091,0.092-0.116c0.121-0.164,0.207-0.246,0.259-0.246c0.104,0,0.276,0.099,0.519,0.298
	c0.241,0.198,0.363,0.33,0.363,0.395c0,0.065-0.085,0.123-0.253,0.176c-0.169,0.052-0.253,0.095-0.253,0.129
	c-0.242,1.781-0.497,2.82-0.766,3.118c-0.268,0.298-0.578,0.447-0.933,0.447c-0.069,0-0.121-0.076-0.155-0.227
	c-0.035-0.151-0.402-0.305-1.102-0.461c-0.026,0-0.061-0.004-0.104-0.013l0.025-0.233c0.043,0.018,0.081,0.026,0.116,0.026
	c0.259,0.052,0.627,0.077,1.102,0.077c0.347,0,0.575-0.084,0.688-0.253c0.112-0.168,0.214-0.478,0.305-0.933
	c0.091-0.454,0.171-1.088,0.24-1.899H24.391z"/>
<path fill="#F7F7F7" d="M29.187,47.647c-0.151,0-0.198-0.205-0.213-0.272c-0.013-0.058-0.144-0.213-1.057-0.416
	c-0.017,0.003-0.054-0.003-0.103-0.012l-0.054-0.011l0.04-0.364l0.072,0.028c0.037,0.015,0.068,0.021,0.095,0.021
	c0.267,0.053,0.633,0.078,1.103,0.078c0.322,0,0.537-0.076,0.638-0.227c0.108-0.162,0.206-0.469,0.296-0.912
	c0.087-0.438,0.166-1.052,0.232-1.828h-5.787v2.176h2.332v-1.25c0-0.383-0.037-0.526-0.069-0.579l-0.073-0.123l1.11,0.281
	c0.155,0.043,0.188,0.126,0.188,0.188c0,0.122-0.169,0.184-0.296,0.219c-0.139,0.039-0.21,0.092-0.21,0.157v0.739l0.026,1.23
	c0,0.177-0.168,0.267-0.5,0.267c-0.066,0-0.176-0.035-0.176-0.267v-0.459h-5.56v0.563c0,0.139-0.078,0.306-0.448,0.306h-0.052
	c-0.086,0-0.188-0.051-0.188-0.293l0.052-1.079v-0.411l-0.013-0.635c0-0.253-0.029-0.479-0.088-0.67l-0.031-0.1l1.1,0.271
	c0.155,0.042,0.188,0.125,0.188,0.188c0,0.119-0.162,0.183-0.301,0.225c-0.212,0.063-0.218,0.117-0.218,0.125v1.107h2.565v-2.176
	H22.66v0.174c0,0.21-0.094,0.461-0.539,0.461c-0.098,0-0.215-0.058-0.215-0.331c0-0.886,0.006-1.44,0.015-1.649
	c0.008-0.212,0.012-0.376,0.012-0.502l0.013-4.149c0-0.186-0.024-0.435-0.076-0.741l-0.021-0.121l0.483,0.267l0.326,0.213h1.627
	c0.197-0.505,0.336-0.942,0.41-1.301c-0.002-0.021,0.008-0.065,0.027-0.123l0.018-0.053l1.039,0.273
	c0.133,0.044,0.16,0.126,0.16,0.187c0,0.125-0.185,0.173-0.347,0.2c-0.242,0.043-0.285,0.068-0.291,0.072
	c-0.158,0.244-0.343,0.482-0.544,0.701l-0.043,0.043h3.4c0.172-0.3,0.314-0.44,0.449-0.44c0.029,0,0.074,0.013,0.202,0.102
	c0.082,0.058,0.211,0.142,0.394,0.258c0.197,0.125,0.293,0.243,0.293,0.36c0,0.052-0.021,0.125-0.121,0.182
	c-0.342,0.182-0.381,0.243-0.387,0.254l0.002,1.237c0.043,0.339,0.064,0.912,0.064,1.697c0,0.188-0.095,0.409-0.551,0.409
	c-0.137,0-0.215-0.087-0.215-0.241v-0.014l0.011-0.328H22.66v1.048h6.769c0.06-0.081,0.104-0.146,0.138-0.193
	c0.267-0.396,0.334-0.428,0.385-0.428c0.055,0,0.113,0.021,0.176,0.062c0.13,0.104,0.265,0.204,0.402,0.299
	c0.391,0.293,0.44,0.412,0.44,0.482c0,0.113-0.062,0.183-0.163,0.183H22.66v1.049h7.471c0.031-0.039,0.055-0.069,0.068-0.091
	c0.179-0.24,0.256-0.272,0.31-0.272c0.121,0,0.297,0.1,0.556,0.312c0.34,0.278,0.385,0.379,0.385,0.44
	c0,0.126-0.168,0.193-0.295,0.232c-0.158,0.048-0.203,0.078-0.213,0.087c-0.246,1.808-0.5,2.833-0.777,3.143
	C29.886,47.491,29.557,47.647,29.187,47.647 M27.89,46.839c0.017,0.002,0.029,0.003,0.039,0.003c0.976,0.215,1.132,0.384,1.16,0.506
	c0.024,0.113,0.062,0.181,0.098,0.181c0.335,0,0.634-0.144,0.89-0.427c0.259-0.289,0.511-1.327,0.75-3.087
	c0-0.062,0.078-0.111,0.293-0.179c0.209-0.063,0.213-0.115,0.213-0.118c-0.002-0.007-0.016-0.081-0.342-0.349
	c-0.301-0.248-0.432-0.285-0.481-0.285c-0.005,0.002-0.058,0.013-0.212,0.222c-0.016,0.025-0.048,0.065-0.094,0.12l-0.018,0.021
	h-7.643v-1.284h8.264c0.023,0,0.045,0,0.045-0.064c0-0.016-0.019-0.107-0.391-0.387c-0.139-0.095-0.275-0.196-0.404-0.299
	c-0.038-0.025-0.074-0.039-0.105-0.039c-0.004,0.003-0.067,0.05-0.289,0.376c-0.033,0.052-0.086,0.126-0.155,0.222l-0.019,0.024
	h-6.945v-1.286h5.836l-0.016,0.451c0,0.124,0.049,0.133,0.098,0.133c0.388,0,0.433-0.166,0.433-0.291
	c0-0.78-0.021-1.349-0.063-1.689l-0.002-1.252c0-0.059,0.035-0.132,0.447-0.35c0.053-0.031,0.06-0.06,0.06-0.079
	c0-0.05-0.041-0.136-0.238-0.261c-0.185-0.117-0.313-0.203-0.397-0.261c-0.105-0.073-0.135-0.08-0.138-0.08
	c-0.048,0-0.161,0.053-0.36,0.41l-0.018,0.03h-3.755l0.244-0.243c0.194-0.211,0.375-0.444,0.537-0.69
	c0.022-0.033,0.063-0.064,0.362-0.117c0.229-0.039,0.25-0.084,0.25-0.084c0-0.015,0-0.048-0.076-0.073l-0.928-0.243
	c-0.004,0.023-0.006,0.037-0.006,0.045c-0.08,0.385-0.225,0.842-0.432,1.369l-0.016,0.037h-1.742l-0.353-0.229l-0.266-0.147
	c0.04,0.26,0.06,0.475,0.06,0.643l-0.014,4.148c0,0.127-0.004,0.293-0.014,0.508c-0.008,0.206-0.012,0.759-0.012,1.644
	c0,0.213,0.072,0.213,0.096,0.213c0.378,0,0.422-0.195,0.422-0.343v-0.292h1.361v2.412h-2.801v-1.226
	c0-0.133,0.172-0.199,0.301-0.238c0.211-0.063,0.217-0.111,0.217-0.111c0-0.031-0.032-0.056-0.098-0.074l-0.899-0.221
	c0.044,0.18,0.065,0.383,0.065,0.605l0.014,0.634v0.416l-0.053,1.079c0,0.113,0.024,0.172,0.071,0.172h0.052
	c0.33,0,0.33-0.137,0.33-0.188v-0.682H26.9v0.577c0,0.099,0.019,0.147,0.057,0.147c0.174,0,0.382-0.024,0.382-0.147v-0.144
	l-0.026-1.086v-0.74c0-0.124,0.1-0.215,0.297-0.271c0.199-0.057,0.209-0.104,0.209-0.105c0-0.03-0.033-0.055-0.1-0.073l-0.861-0.218
	c0.027,0.115,0.043,0.289,0.043,0.524v1.368h-2.568v-2.412h6.033l-0.004,0.063c-0.07,0.812-0.151,1.453-0.242,1.905
	c-0.092,0.466-0.195,0.777-0.313,0.955c-0.123,0.186-0.371,0.279-0.735,0.279c-0.478,0-0.853-0.027-1.113-0.079
	c-0.018-0.001-0.034-0.002-0.055-0.006L27.89,46.839z M30.943,44.023c0,0.004,0,0.007,0,0.01
	C30.943,44.031,30.943,44.027,30.943,44.023"/>
<path fill="#F7F7F7" d="M34.592,43.363c-0.104,0.017-0.38,0.025-0.829,0.025c-0.312,0-0.567,0.03-0.765,0.091l-0.234-0.57
	c0.303,0.087,0.623,0.13,0.96,0.13l1.103,0.038h8.438l0.454-0.518c0.026-0.026,0.056-0.039,0.091-0.039
	c0.069,0,0.184,0.082,0.344,0.246c0.159,0.164,0.299,0.303,0.42,0.415c0.019,0.018,0.026,0.039,0.026,0.064
	c0,0.078-0.028,0.117-0.09,0.117h-5.548c0.354,0.709,0.834,1.326,1.439,1.854c0.733-0.51,1.273-1.007,1.619-1.491
	c0.147,0.078,0.256,0.135,0.324,0.169c0.396,0.207,0.596,0.354,0.596,0.44c0,0.052-0.052,0.078-0.154,0.078h-0.506
	c-0.276,0.174-0.652,0.389-1.127,0.648c-0.147,0.077-0.338,0.181-0.572,0.311c1.211,0.752,2.464,1.188,3.761,1.31
	c0.086,0,0.185,0.008,0.297,0.025v0.182c-0.354,0.104-0.558,0.212-0.608,0.323c-0.052,0.113-0.104,0.169-0.155,0.169
	c-0.285,0-0.875-0.212-1.771-0.635c-0.894-0.424-1.594-0.89-2.1-1.4c-0.505-0.509-0.939-1.171-1.303-1.982h-0.143
	c-0.294,0.294-0.613,0.553-0.96,0.777l-0.622,0.389v1.726l1.154-0.286c0.415-0.104,0.752-0.194,1.011-0.272
	c0.113-0.034,0.255-0.078,0.429-0.13l0.064,0.182c-1.564,0.597-3.025,1.046-4.381,1.349c-0.053,0.008-0.096,0.099-0.13,0.271
	c-0.035,0.173-0.089,0.26-0.162,0.26c-0.074,0-0.123-0.039-0.149-0.116l-0.324-0.882l0.816-0.078
	c0.216-0.018,0.602-0.087,1.154-0.207v-1.569c-0.805,0.39-1.881,0.771-3.229,1.141c-0.076,0.019-0.173,0.044-0.285,0.078
	l-0.064-0.182c2.178-0.708,3.811-1.525,4.9-2.449H34.592z M36.679,37.594v0.946h1.958l0.389-0.415
	c0.018-0.026,0.057-0.039,0.116-0.039s0.177,0.087,0.351,0.26l0.311,0.311c0.018,0.009,0.025,0.021,0.025,0.039
	c0,0.086-0.033,0.13-0.103,0.13h-3.047v0.868h1.737l0.246-0.26c0.018-0.016,0.039-0.025,0.064-0.025
	c0.104,0,0.236,0.073,0.396,0.221c0.158,0.146,0.24,0.246,0.24,0.298s-0.026,0.087-0.078,0.104c-0.088,0.026-0.174,0.083-0.26,0.169
	v0.933c0,0.252-0.082,0.441-0.246,0.571c-0.164,0.129-0.308,0.193-0.428,0.193c-0.044,0-0.074-0.043-0.091-0.129
	c-0.035-0.155-0.19-0.264-0.467-0.324l-0.415-0.077l0.025-0.155l0.92,0.064c0.14,0,0.209-0.078,0.209-0.234l0.013-1.088h-1.867
	v0.531l0.026,1.62v0.116c-0.018,0.087-0.131,0.13-0.338,0.13c-0.129,0-0.193-0.073-0.193-0.22l0.039-1.737v-0.44h-1.686v0.816
	l0.025,1.05v0.117c-0.025,0.086-0.15,0.129-0.376,0.129c-0.103,0-0.155-0.063-0.155-0.194v-0.013l0.026-1.102V40.42l-0.026-0.545
	c0-0.251-0.021-0.419-0.064-0.506l0.363,0.143c0.172,0.087,0.284,0.147,0.336,0.182h1.557v-0.868h-1.387l-0.844,0.013
	c-0.224,0-0.432,0.021-0.621,0.064c-0.035,0-0.074,0.014-0.117,0.039l-0.221-0.519c0.277,0.069,0.553,0.104,0.829,0.104l1.037,0.014
	h1.323v-0.946h-1.828c-0.129,0.182-0.251,0.333-0.363,0.453l-0.414,0.414l-0.13-0.115c0.414-0.51,0.778-1.224,1.089-2.14
	c0.018-0.06,0.043-0.134,0.077-0.221l0.791,0.351c0.069,0.026,0.104,0.065,0.104,0.116c0,0.053-0.039,0.083-0.117,0.091
	c-0.121,0.009-0.232,0.026-0.337,0.052c-0.017,0-0.039,0.019-0.065,0.053l-0.453,0.687h1.646l-0.039-0.895
	c0-0.26-0.014-0.415-0.039-0.466c0.164,0.034,0.293,0.06,0.389,0.077c0.467,0.096,0.7,0.18,0.7,0.253s-0.091,0.139-0.272,0.194
	c-0.182,0.057-0.272,0.119-0.272,0.188v0.648h1.452l0.389-0.428c0.018-0.025,0.053-0.039,0.104-0.039s0.179,0.098,0.382,0.292
	s0.305,0.315,0.305,0.363c0,0.047-0.035,0.071-0.104,0.071H36.679z M37.794,42.208l0.039-0.155c0.69,0.112,1.112,0.219,1.264,0.317
	c0.151,0.1,0.226,0.235,0.226,0.408s-0.067,0.26-0.207,0.26c-0.138,0-0.289-0.091-0.453-0.272
	C38.438,42.533,38.148,42.347,37.794,42.208 M40.335,37.153c0-0.275-0.022-0.458-0.065-0.544l0.907,0.207
	c0.078,0.018,0.117,0.059,0.117,0.124c0,0.064-0.045,0.107-0.136,0.129c-0.092,0.021-0.197,0.08-0.318,0.175v2.218
	c0.018,0.275,0.025,0.673,0.025,1.191v0.156c-0.017,0.095-0.154,0.142-0.414,0.142c-0.086,0-0.129-0.068-0.129-0.207l0.013-1.438
	V37.153z M42.759,37.983l-0.039-1.271c0-0.31-0.022-0.531-0.065-0.66l0.973,0.233c0.078,0.026,0.117,0.069,0.117,0.13
	s-0.078,0.11-0.234,0.148c-0.155,0.039-0.232,0.094-0.232,0.162v4.758c0,0.294-0.1,0.508-0.299,0.642s-0.359,0.2-0.479,0.2
	c-0.07,0-0.117-0.066-0.143-0.2c-0.027-0.134-0.195-0.235-0.507-0.305l-0.778-0.182l0.027-0.182
	c0.129,0.018,0.237,0.026,0.324,0.026c0.527,0.043,0.916,0.064,1.167,0.064c0.112,0,0.168-0.095,0.168-0.285V37.983z"/>
<path fill="#F7F7F7" d="M34.962,47.686c-0.099,0-0.172-0.056-0.206-0.156l-0.35-0.952l0.894-0.085
	c0.207-0.017,0.577-0.083,1.101-0.196v-1.428c-0.795,0.376-1.855,0.747-3.153,1.104c-0.082,0.019-0.177,0.044-0.284,0.077
	l-0.055,0.017l-0.104-0.292l0.059-0.019c2.078-0.676,3.676-1.461,4.754-2.335h-3.021c-0.11,0.018-0.383,0.025-0.834,0.025
	c-0.304,0-0.555,0.03-0.748,0.089l-0.052,0.016l-0.299-0.732l0.117,0.033c0.293,0.084,0.611,0.127,0.942,0.127l1.104,0.039h4.035
	c-0.078-0.049-0.16-0.119-0.244-0.213c-0.217-0.224-0.502-0.406-0.846-0.542l-0.05-0.019l0.065-0.259l0.053,0.009
	c0.706,0.115,1.127,0.222,1.287,0.327c0.168,0.11,0.253,0.265,0.253,0.457c0,0.117-0.028,0.191-0.071,0.239h3.926l0.438-0.498
	c0.109-0.11,0.242-0.08,0.52,0.204c0.166,0.171,0.304,0.306,0.42,0.413c0.031,0.031,0.045,0.067,0.045,0.108
	c0,0.163-0.114,0.176-0.149,0.176h-5.452c0.338,0.65,0.791,1.229,1.348,1.72c0.705-0.495,1.233-0.982,1.567-1.45l0.03-0.042
	l0.045,0.024c0.146,0.077,0.254,0.134,0.323,0.168c0.554,0.289,0.629,0.412,0.629,0.493c0,0.052-0.028,0.137-0.214,0.137h-0.489
	c-0.272,0.171-0.64,0.381-1.116,0.642c-0.129,0.067-0.289,0.154-0.482,0.263c1.172,0.711,2.397,1.13,3.648,1.247
	c0.085,0.006,0.189,0.009,0.303,0.026l0.049,0.008v0.276l-0.043,0.012c-0.418,0.123-0.541,0.227-0.571,0.292
	c-0.063,0.137-0.132,0.203-0.209,0.203c-0.296,0-0.884-0.21-1.795-0.641c-0.898-0.426-1.61-0.901-2.117-1.412
	c-0.5-0.505-0.937-1.166-1.299-1.966h-0.08c-0.29,0.288-0.61,0.547-0.952,0.769l-0.595,0.372v1.616l1.081-0.268
	c0.423-0.105,0.752-0.194,1.008-0.271c0.111-0.034,0.255-0.078,0.428-0.13l0.055-0.016l0.103,0.288l-0.054,0.021
	c-1.558,0.594-3.033,1.049-4.391,1.352c-0.002,0-0.044,0.021-0.085,0.226C35.166,47.456,35.12,47.686,34.962,47.686 M34.57,46.68
	l0.297,0.811c0.023,0.068,0.061,0.077,0.095,0.077c0.028,0,0.071-0.056,0.104-0.212c0.041-0.207,0.096-0.306,0.178-0.318
	c1.332-0.298,2.783-0.744,4.316-1.324l-0.027-0.075c-0.149,0.045-0.273,0.083-0.373,0.115c-0.258,0.076-0.59,0.165-1.016,0.271
	l-1.227,0.304v-1.832l0.65-0.406c0.34-0.222,0.66-0.48,0.949-0.77l0.016-0.018h0.205l0.017,0.035
	c0.358,0.802,0.793,1.463,1.291,1.966c0.497,0.501,1.198,0.969,2.083,1.389c0.884,0.417,1.471,0.629,1.745,0.629
	c0.015,0,0.053-0.028,0.103-0.134c0.057-0.127,0.25-0.236,0.604-0.344v-0.087c-0.088-0.012-0.168-0.018-0.24-0.018
	c-1.304-0.121-2.578-0.564-3.79-1.318l-0.085-0.053l0.087-0.049c0.234-0.13,0.425-0.233,0.572-0.312
	c0.483-0.264,0.851-0.475,1.124-0.646l0.014-0.01h0.523c0.08,0,0.096-0.017,0.096-0.017c0-0.012-0.021-0.106-0.564-0.391
	c-0.062-0.03-0.154-0.078-0.278-0.145c-0.349,0.474-0.89,0.966-1.605,1.463l-0.036,0.026l-0.035-0.03
	c-0.608-0.529-1.098-1.159-1.453-1.872l-0.043-0.085h5.644c0.015,0,0.032,0,0.032-0.058c0-0.01-0.003-0.017-0.01-0.024
	c-0.115-0.106-0.254-0.243-0.422-0.414c-0.207-0.212-0.282-0.229-0.301-0.229s-0.033,0.008-0.049,0.021l-0.469,0.536h-8.465
	l-1.104-0.039h-0.001c-0.297,0-0.585-0.034-0.857-0.101l0.168,0.411c0.197-0.052,0.442-0.078,0.731-0.078
	c0.446,0,0.722-0.009,0.819-0.025l0.01-0.001h3.35l-0.123,0.104c-1.08,0.917-2.715,1.739-4.861,2.441l0.025,0.072
	c0.088-0.026,0.168-0.046,0.235-0.063c1.335-0.367,2.417-0.75,3.215-1.136l0.085-0.041v1.71l-0.047,0.011
	c-0.552,0.12-0.943,0.19-1.16,0.208L34.57,46.68z M37.863,42.173c0.34,0.139,0.621,0.324,0.842,0.552
	c0.152,0.169,0.291,0.254,0.41,0.254c0.074,0,0.149-0.023,0.149-0.2c0-0.151-0.065-0.27-0.2-0.358
	c-0.141-0.092-0.539-0.193-1.188-0.3L37.863,42.173z M36.367,42.411c-0.094,0-0.252-0.035-0.252-0.279l0.037-1.739v-0.38h-1.565
	v0.758l0.024,1.175l-0.002,0.009c-0.035,0.115-0.176,0.172-0.433,0.172c-0.063,0-0.215-0.025-0.215-0.254l0.026-1.116v-0.337
	l-0.025-0.54c-0.001-0.302-0.032-0.429-0.059-0.482l-0.068-0.137l0.505,0.198c0.163,0.081,0.272,0.14,0.333,0.178h1.479v-0.751
	h-1.326l-0.842,0.014c-0.223,0-0.428,0.021-0.61,0.063c-0.037,0.001-0.066,0.011-0.099,0.031l-0.06,0.035l-0.293-0.69l0.115,0.028
	c0.153,0.039,0.31,0.067,0.466,0.084l-0.107-0.098l0.035-0.044c0.408-0.502,0.771-1.215,1.078-2.12
	c0.018-0.06,0.044-0.137,0.079-0.224l0.022-0.057l0.848,0.375c0.113,0.043,0.138,0.116,0.138,0.17c0,0.05-0.022,0.134-0.169,0.149
	c-0.12,0.009-0.23,0.026-0.329,0.051c-0.004,0-0.013,0.006-0.032,0.03l-0.391,0.593h1.475l-0.035-0.833
	c0-0.341-0.023-0.423-0.033-0.442l-0.055-0.109l0.119,0.025c0.164,0.034,0.293,0.06,0.387,0.077c0.691,0.141,0.75,0.23,0.75,0.311
	c0,0.138-0.18,0.209-0.314,0.251c-0.182,0.057-0.23,0.109-0.23,0.131v0.59h1.367l0.371-0.409c0.023-0.036,0.074-0.058,0.147-0.058
	c0.052,0,0.14,0.037,0.423,0.308c0.298,0.286,0.323,0.359,0.323,0.406c0,0.03-0.013,0.13-0.163,0.13h-2.469v0.829h1.873l0.371-0.396
	c0.022-0.038,0.078-0.059,0.16-0.059c0.057,0,0.147,0.032,0.391,0.276l0.306,0.305c0.032,0.02,0.049,0.051,0.049,0.087
	c0,0.118-0.061,0.188-0.161,0.188h-2.988v0.751h1.652l0.229-0.241c0.028-0.029,0.065-0.044,0.106-0.044
	c0.12,0,0.262,0.077,0.437,0.236c0.228,0.209,0.258,0.289,0.258,0.341c0,0.078-0.042,0.135-0.118,0.159
	c-0.072,0.022-0.145,0.068-0.218,0.138v0.908c0,0.269-0.091,0.477-0.269,0.618c-0.178,0.139-0.33,0.206-0.465,0.206
	c-0.076,0-0.125-0.06-0.148-0.177c-0.029-0.13-0.172-0.224-0.422-0.277l-0.469-0.089l0.043-0.266l0.975,0.068
	c0.072,0,0.144-0.021,0.144-0.175l0.013-1.029h-1.748v0.473l0.025,1.736C36.727,42.411,36.457,42.411,36.367,42.411 M34.468,39.894
	h1.804v0.5l-0.039,1.738c0,0.141,0.065,0.161,0.135,0.161c0.168,0,0.27-0.031,0.279-0.084v-0.104l-0.026-1.62v-0.591h1.985
	l-0.014,1.149c0,0.188-0.095,0.291-0.268,0.291l-0.869-0.062l-0.008,0.046l0.357,0.066c0.303,0.066,0.473,0.19,0.514,0.37
	c0.015,0.071,0.033,0.083,0.033,0.083c0.107,0,0.238-0.062,0.391-0.182c0.15-0.118,0.224-0.29,0.224-0.524v-0.957l0.017-0.018
	c0.094-0.093,0.189-0.154,0.285-0.184c0.029-0.01,0.035-0.024,0.035-0.047c0-0.006-0.01-0.062-0.22-0.255
	c-0.185-0.169-0.295-0.204-0.356-0.204c-0.013,0-0.019,0.004-0.022,0.008l-0.263,0.277H36.62v-0.987h3.106
	c0.019,0,0.041,0,0.043-0.061l-0.009-0.007l-0.312-0.312c-0.229-0.23-0.297-0.242-0.307-0.242c-0.056,0-0.068,0.013-0.068,0.013
	l-0.412,0.441H36.62v-1.064h2.587c0.035,0,0.045-0.008,0.045-0.008c-0.002-0.012-0.025-0.075-0.287-0.324
	c-0.266-0.255-0.332-0.274-0.343-0.275c-0.035,0-0.05,0.008-0.054,0.012l-0.412,0.454H36.62v-0.707c0-0.131,0.179-0.202,0.313-0.244
	c0.219-0.066,0.231-0.127,0.231-0.138c-0.007-0.005-0.075-0.077-0.653-0.194c-0.076-0.015-0.175-0.034-0.297-0.06
	c0.01,0.072,0.018,0.189,0.018,0.39l0.041,0.953h-1.816l0.514-0.778c0.029-0.038,0.066-0.078,0.114-0.078
	c0.091-0.024,0.208-0.043,0.333-0.052c0.063-0.007,0.063-0.023,0.063-0.032c0-0.01,0-0.036-0.066-0.062l-0.738-0.326
	c-0.021,0.061-0.04,0.112-0.053,0.158c-0.305,0.896-0.662,1.606-1.065,2.116l0.048,0.042l0.375-0.375
	c0.108-0.118,0.229-0.269,0.356-0.446l0.017-0.025h1.918v1.064H34.89l-1.036-0.013c-0.244,0-0.488-0.026-0.729-0.079l0.149,0.354
	c0.03-0.012,0.06-0.018,0.086-0.018c0.181-0.042,0.395-0.064,0.623-0.064l0.842-0.014h1.447v0.987h-1.633l-0.014-0.01
	c-0.036-0.023-0.122-0.075-0.331-0.179l-0.244-0.096c0.021,0.1,0.031,0.233,0.031,0.406l0.026,0.543v0.339l-0.026,1.103
	c0,0.137,0.049,0.147,0.096,0.147c0.245,0,0.304-0.053,0.317-0.081V41.82l-0.026-1.049V39.894z M33.689,38.464
	c0.055,0.002,0.108,0.004,0.164,0.004l1.037,0.014h1.262v-0.829h-1.737c-0.123,0.172-0.241,0.318-0.351,0.435L33.689,38.464z
	 M42.5,42.384c-0.102,0-0.169-0.084-0.201-0.249c-0.021-0.106-0.18-0.195-0.461-0.258l-0.831-0.194l0.042-0.293l0.059,0.008
	c0.127,0.018,0.232,0.026,0.315,0.026c0.524,0.042,0.915,0.064,1.167,0.064c0.027,0,0.109,0,0.109-0.227v-3.278l-0.038-1.27
	c0-0.306-0.021-0.521-0.063-0.645l-0.032-0.101l1.074,0.258c0.135,0.045,0.162,0.127,0.162,0.188c0,0.123-0.158,0.176-0.277,0.206
	c-0.14,0.035-0.188,0.077-0.188,0.104v4.758c0,0.313-0.11,0.546-0.325,0.69C42.802,42.315,42.634,42.384,42.5,42.384 M41.14,41.593
	l0.726,0.169c0.339,0.075,0.519,0.19,0.55,0.352c0.011,0.057,0.037,0.152,0.085,0.152c0.107,0,0.259-0.064,0.445-0.19
	c0.184-0.123,0.272-0.317,0.272-0.593v-4.758c0-0.148,0.209-0.202,0.278-0.219c0.154-0.039,0.189-0.079,0.189-0.092
	c0-0.015,0-0.048-0.078-0.074l-0.871-0.209c0.028,0.137,0.043,0.33,0.043,0.581l0.039,1.271v3.279c0,0.284-0.125,0.345-0.229,0.345
	c-0.254,0-0.648-0.022-1.171-0.065c-0.074-0.002-0.163-0.006-0.269-0.019L41.14,41.593z M40.451,41.01
	c-0.07,0-0.188-0.035-0.188-0.267l0.013-1.438v-2.152c0-0.331-0.031-0.464-0.059-0.518l-0.056-0.112l1.03,0.235
	c0.141,0.031,0.162,0.127,0.162,0.181c0,0.055-0.024,0.15-0.183,0.188c-0.076,0.018-0.168,0.066-0.272,0.146v2.188
	c0.019,0.273,0.026,0.676,0.026,1.191v0.156C40.893,40.99,40.639,41.01,40.451,41.01 M40.357,36.69
	c0.024,0.105,0.037,0.259,0.037,0.463v2.152l-0.015,1.439c0,0.147,0.05,0.147,0.071,0.147c0.316,0,0.353-0.072,0.356-0.094
	l-0.001-0.146c0-0.514-0.009-0.913-0.025-1.188v-2.249l0.022-0.018c0.127-0.1,0.241-0.162,0.341-0.187
	c0.09-0.021,0.09-0.058,0.09-0.072c0-0.019,0-0.05-0.069-0.065L40.357,36.69z"/>
</svg>
